<svg xmlns="http://www.w3.org/2000/svg" width="128" height="128" viewBox="0 0 128 128" shape-rendering="crispEdges">
<rect width="128" height="128" rx="16" fill="#1d1830"/>
<rect x="84" y="12" width="4" height="4" fill="#09080b"/>
<rect x="104" y="12" width="4" height="4" fill="#09080b"/>
<rect x="80" y="16" width="4" height="4" fill="#09080b"/>
<rect x="84" y="16" width="4" height="4" fill="#26242c"/>
<rect x="88" y="16" width="4" height="4" fill="#09080b"/>
<rect x="100" y="16" width="4" height="4" fill="#09080b"/>
<rect x="104" y="16" width="4" height="4" fill="#26242c"/>
<rect x="108" y="16" width="4" height="4" fill="#09080b"/>
<rect x="80" y="20" width="4" height="4" fill="#09080b"/>
<rect x="84" y="20" width="4" height="4" fill="#524e54"/>
<rect x="88" y="20" width="4" height="4" fill="#26242c"/>
<rect x="92" y="20" width="4" height="4" fill="#09080b"/>
<rect x="100" y="20" width="4" height="4" fill="#09080b"/>
<rect x="104" y="20" width="4" height="4" fill="#383640"/>
<rect x="108" y="20" width="4" height="4" fill="#524e54"/>
<rect x="112" y="20" width="4" height="4" fill="#09080b"/>
<rect x="20" y="24" width="4" height="4" fill="#09080b"/>
<rect x="76" y="24" width="4" height="4" fill="#09080b"/>
<rect x="80" y="24" width="12" height="4" fill="#26242c"/>
<rect x="92" y="24" width="8" height="4" fill="#09080b"/>
<rect x="100" y="24" width="12" height="4" fill="#26242c"/>
<rect x="112" y="24" width="4" height="4" fill="#09080b"/>
<rect x="16" y="28" width="4" height="4" fill="#09080b"/>
<rect x="20" y="28" width="4" height="4" fill="#26242c"/>
<rect x="24" y="28" width="4" height="4" fill="#09080b"/>
<rect x="76" y="28" width="4" height="4" fill="#09080b"/>
<rect x="80" y="28" width="4" height="4" fill="#383640"/>
<rect x="84" y="28" width="4" height="4" fill="#603c48"/>
<rect x="88" y="28" width="4" height="4" fill="#26242c"/>
<rect x="92" y="28" width="4" height="4" fill="#383640"/>
<rect x="96" y="28" width="4" height="4" fill="#42382e"/>
<rect x="100" y="28" width="4" height="4" fill="#26242c"/>
<rect x="104" y="28" width="4" height="4" fill="#603c48"/>
<rect x="108" y="28" width="4" height="4" fill="#09080b"/>
<rect x="12" y="32" width="4" height="4" fill="#09080b"/>
<rect x="16" y="32" width="4" height="4" fill="#383640"/>
<rect x="20" y="32" width="4" height="4" fill="#26242c"/>
<rect x="24" y="32" width="4" height="4" fill="#09080b"/>
<rect x="76" y="32" width="4" height="4" fill="#09080b"/>
<rect x="80" y="32" width="12" height="4" fill="#26242c"/>
<rect x="92" y="32" width="4" height="4" fill="#383640"/>
<rect x="96" y="32" width="12" height="4" fill="#26242c"/>
<rect x="108" y="32" width="4" height="4" fill="#09080b"/>
<rect x="12" y="36" width="4" height="4" fill="#09080b"/>
<rect x="16" y="36" width="8" height="4" fill="#26242c"/>
<rect x="24" y="36" width="4" height="4" fill="#09080b"/>
<rect x="72" y="36" width="4" height="4" fill="#09080b"/>
<rect x="76" y="36" width="8" height="4" fill="#26242c"/>
<rect x="84" y="36" width="4" height="4" fill="#383640"/>
<rect x="88" y="36" width="8" height="4" fill="#26242c"/>
<rect x="96" y="36" width="8" height="4" fill="#42382e"/>
<rect x="104" y="36" width="8" height="4" fill="#26242c"/>
<rect x="112" y="36" width="4" height="4" fill="#09080b"/>
<rect x="8" y="40" width="4" height="4" fill="#09080b"/>
<rect x="12" y="40" width="12" height="4" fill="#26242c"/>
<rect x="24" y="40" width="4" height="4" fill="#09080b"/>
<rect x="68" y="40" width="4" height="4" fill="#09080b"/>
<rect x="72" y="40" width="4" height="4" fill="#26242c"/>
<rect x="76" y="40" width="4" height="4" fill="#383640"/>
<rect x="80" y="40" width="12" height="4" fill="#26242c"/>
<rect x="92" y="40" width="4" height="4" fill="#524e54"/>
<rect x="96" y="40" width="12" height="4" fill="#26242c"/>
<rect x="108" y="40" width="4" height="4" fill="#383640"/>
<rect x="112" y="40" width="4" height="4" fill="#26242c"/>
<rect x="116" y="40" width="4" height="4" fill="#09080b"/>
<rect x="8" y="44" width="4" height="4" fill="#09080b"/>
<rect x="12" y="44" width="8" height="4" fill="#26242c"/>
<rect x="20" y="44" width="4" height="4" fill="#09080b"/>
<rect x="68" y="44" width="4" height="4" fill="#09080b"/>
<rect x="72" y="44" width="12" height="4" fill="#26242c"/>
<rect x="84" y="44" width="4" height="4" fill="#383640"/>
<rect x="88" y="44" width="8" height="4" fill="#524e54"/>
<rect x="96" y="44" width="4" height="4" fill="#26242c"/>
<rect x="100" y="44" width="8" height="4" fill="#b21824"/>
<rect x="108" y="44" width="4" height="4" fill="#383640"/>
<rect x="112" y="44" width="4" height="4" fill="#524e54"/>
<rect x="116" y="44" width="4" height="4" fill="#09080b"/>
<rect x="8" y="48" width="4" height="4" fill="#09080b"/>
<rect x="12" y="48" width="8" height="4" fill="#26242c"/>
<rect x="20" y="48" width="4" height="4" fill="#09080b"/>
<rect x="68" y="48" width="4" height="4" fill="#09080b"/>
<rect x="72" y="48" width="24" height="4" fill="#26242c"/>
<rect x="96" y="48" width="4" height="4" fill="#969eb0"/>
<rect x="100" y="48" width="8" height="4" fill="#b21824"/>
<rect x="108" y="48" width="8" height="4" fill="#383640"/>
<rect x="116" y="48" width="4" height="4" fill="#09080b"/>
<rect x="12" y="52" width="4" height="4" fill="#09080b"/>
<rect x="16" y="52" width="8" height="4" fill="#26242c"/>
<rect x="24" y="52" width="4" height="4" fill="#09080b"/>
<rect x="60" y="52" width="4" height="4" fill="#09080b"/>
<rect x="68" y="52" width="4" height="4" fill="#09080b"/>
<rect x="72" y="52" width="8" height="4" fill="#26242c"/>
<rect x="80" y="52" width="4" height="4" fill="#383640"/>
<rect x="84" y="52" width="4" height="4" fill="#26242c"/>
<rect x="88" y="52" width="4" height="4" fill="#383640"/>
<rect x="92" y="52" width="8" height="4" fill="#26242c"/>
<rect x="100" y="52" width="16" height="4" fill="#383640"/>
<rect x="116" y="52" width="4" height="4" fill="#7a4e58"/>
<rect x="12" y="56" width="4" height="4" fill="#09080b"/>
<rect x="16" y="56" width="8" height="4" fill="#26242c"/>
<rect x="24" y="56" width="4" height="4" fill="#09080b"/>
<rect x="32" y="56" width="28" height="4" fill="#09080b"/>
<rect x="60" y="56" width="4" height="4" fill="#26242c"/>
<rect x="64" y="56" width="12" height="4" fill="#09080b"/>
<rect x="76" y="56" width="4" height="4" fill="#524e54"/>
<rect x="80" y="56" width="16" height="4" fill="#26242c"/>
<rect x="96" y="56" width="4" height="4" fill="#42382e"/>
<rect x="100" y="56" width="16" height="4" fill="#383640"/>
<rect x="116" y="56" width="4" height="4" fill="#09080b"/>
<rect x="12" y="60" width="4" height="4" fill="#09080b"/>
<rect x="16" y="60" width="4" height="4" fill="#26242c"/>
<rect x="20" y="60" width="4" height="4" fill="#42382e"/>
<rect x="24" y="60" width="8" height="4" fill="#09080b"/>
<rect x="32" y="60" width="4" height="4" fill="#26242c"/>
<rect x="36" y="60" width="44" height="4" fill="#40e0e0"/>
<rect x="80" y="60" width="4" height="4" fill="#42e2e2"/>
<rect x="84" y="60" width="16" height="4" fill="#26242c"/>
<rect x="100" y="60" width="4" height="4" fill="#524e54"/>
<rect x="104" y="60" width="8" height="4" fill="#383640"/>
<rect x="112" y="60" width="4" height="4" fill="#09080b"/>
<rect x="12" y="64" width="4" height="4" fill="#09080b"/>
<rect x="16" y="64" width="12" height="4" fill="#26242c"/>
<rect x="28" y="64" width="4" height="4" fill="#383640"/>
<rect x="32" y="64" width="4" height="4" fill="#40e0e0"/>
<rect x="36" y="64" width="4" height="4" fill="#524e54"/>
<rect x="40" y="64" width="4" height="4" fill="#26242c"/>
<rect x="44" y="64" width="4" height="4" fill="#524e54"/>
<rect x="48" y="64" width="8" height="4" fill="#26242c"/>
<rect x="56" y="64" width="4" height="4" fill="#383640"/>
<rect x="60" y="64" width="4" height="4" fill="#524e54"/>
<rect x="64" y="64" width="8" height="4" fill="#26242c"/>
<rect x="72" y="64" width="4" height="4" fill="#383640"/>
<rect x="76" y="64" width="4" height="4" fill="#42382e"/>
<rect x="80" y="64" width="4" height="4" fill="#383640"/>
<rect x="84" y="64" width="4" height="4" fill="#42382e"/>
<rect x="88" y="64" width="4" height="4" fill="#26242c"/>
<rect x="92" y="64" width="4" height="4" fill="#42382e"/>
<rect x="96" y="64" width="8" height="4" fill="#26242c"/>
<rect x="104" y="64" width="8" height="4" fill="#09080b"/>
<rect x="16" y="68" width="8" height="4" fill="#09080b"/>
<rect x="24" y="68" width="20" height="4" fill="#26242c"/>
<rect x="44" y="68" width="4" height="4" fill="#524e54"/>
<rect x="48" y="68" width="4" height="4" fill="#42382e"/>
<rect x="52" y="68" width="28" height="4" fill="#26242c"/>
<rect x="80" y="68" width="4" height="4" fill="#383640"/>
<rect x="84" y="68" width="8" height="4" fill="#26242c"/>
<rect x="92" y="68" width="12" height="4" fill="#09080b"/>
<rect x="20" y="72" width="4" height="4" fill="#09080b"/>
<rect x="24" y="72" width="4" height="4" fill="#42382e"/>
<rect x="28" y="72" width="4" height="4" fill="#26242c"/>
<rect x="32" y="72" width="4" height="4" fill="#524e54"/>
<rect x="36" y="72" width="4" height="4" fill="#383640"/>
<rect x="40" y="72" width="16" height="4" fill="#26242c"/>
<rect x="56" y="72" width="4" height="4" fill="#42382e"/>
<rect x="60" y="72" width="12" height="4" fill="#26242c"/>
<rect x="72" y="72" width="4" height="4" fill="#383640"/>
<rect x="76" y="72" width="20" height="4" fill="#26242c"/>
<rect x="96" y="72" width="4" height="4" fill="#09080b"/>
<rect x="20" y="76" width="4" height="4" fill="#09080b"/>
<rect x="24" y="76" width="8" height="4" fill="#26242c"/>
<rect x="32" y="76" width="4" height="4" fill="#383640"/>
<rect x="36" y="76" width="16" height="4" fill="#26242c"/>
<rect x="52" y="76" width="4" height="4" fill="#383640"/>
<rect x="56" y="76" width="28" height="4" fill="#26242c"/>
<rect x="84" y="76" width="4" height="4" fill="#42382e"/>
<rect x="88" y="76" width="8" height="4" fill="#26242c"/>
<rect x="96" y="76" width="4" height="4" fill="#09080b"/>
<rect x="24" y="80" width="4" height="4" fill="#09080b"/>
<rect x="28" y="80" width="4" height="4" fill="#26242c"/>
<rect x="32" y="80" width="4" height="4" fill="#383640"/>
<rect x="36" y="80" width="12" height="4" fill="#26242c"/>
<rect x="48" y="80" width="32" height="4" fill="#19181e"/>
<rect x="80" y="80" width="12" height="4" fill="#26242c"/>
<rect x="92" y="80" width="4" height="4" fill="#09080b"/>
<rect x="28" y="84" width="4" height="4" fill="#09080b"/>
<rect x="32" y="84" width="8" height="4" fill="#26242c"/>
<rect x="40" y="84" width="36" height="4" fill="#19181e"/>
<rect x="76" y="84" width="8" height="4" fill="#26242c"/>
<rect x="84" y="84" width="8" height="4" fill="#19181e"/>
<rect x="92" y="84" width="4" height="4" fill="#09080b"/>
<rect x="28" y="88" width="4" height="4" fill="#09080b"/>
<rect x="32" y="88" width="4" height="4" fill="#383640"/>
<rect x="36" y="88" width="4" height="4" fill="#26242c"/>
<rect x="40" y="88" width="4" height="4" fill="#383640"/>
<rect x="44" y="88" width="4" height="4" fill="#26242c"/>
<rect x="48" y="88" width="28" height="4" fill="#19181e"/>
<rect x="76" y="88" width="8" height="4" fill="#26242c"/>
<rect x="84" y="88" width="8" height="4" fill="#19181e"/>
<rect x="92" y="88" width="4" height="4" fill="#09080b"/>
<rect x="28" y="92" width="4" height="4" fill="#09080b"/>
<rect x="32" y="92" width="8" height="4" fill="#26242c"/>
<rect x="40" y="92" width="8" height="4" fill="#19181e"/>
<rect x="48" y="92" width="28" height="4" fill="#09080b"/>
<rect x="76" y="92" width="8" height="4" fill="#26242c"/>
<rect x="84" y="92" width="8" height="4" fill="#19181e"/>
<rect x="92" y="92" width="4" height="4" fill="#09080b"/>
<rect x="28" y="96" width="4" height="4" fill="#09080b"/>
<rect x="32" y="96" width="4" height="4" fill="#26242c"/>
<rect x="36" y="96" width="4" height="4" fill="#42382e"/>
<rect x="40" y="96" width="8" height="4" fill="#19181e"/>
<rect x="48" y="96" width="4" height="4" fill="#09080b"/>
<rect x="72" y="96" width="4" height="4" fill="#09080b"/>
<rect x="76" y="96" width="8" height="4" fill="#26242c"/>
<rect x="84" y="96" width="8" height="4" fill="#19181e"/>
<rect x="92" y="96" width="4" height="4" fill="#09080b"/>
<rect x="28" y="100" width="4" height="4" fill="#09080b"/>
<rect x="32" y="100" width="4" height="4" fill="#26242c"/>
<rect x="36" y="100" width="4" height="4" fill="#42382e"/>
<rect x="40" y="100" width="8" height="4" fill="#19181e"/>
<rect x="48" y="100" width="4" height="4" fill="#09080b"/>
<rect x="72" y="100" width="4" height="4" fill="#09080b"/>
<rect x="76" y="100" width="8" height="4" fill="#26242c"/>
<rect x="84" y="100" width="8" height="4" fill="#19181e"/>
<rect x="92" y="100" width="4" height="4" fill="#09080b"/>
<rect x="28" y="104" width="4" height="4" fill="#09080b"/>
<rect x="32" y="104" width="8" height="4" fill="#26242c"/>
<rect x="40" y="104" width="8" height="4" fill="#19181e"/>
<rect x="48" y="104" width="4" height="4" fill="#09080b"/>
<rect x="72" y="104" width="4" height="4" fill="#09080b"/>
<rect x="76" y="104" width="8" height="4" fill="#26242c"/>
<rect x="84" y="104" width="8" height="4" fill="#19181e"/>
<rect x="92" y="104" width="4" height="4" fill="#09080b"/>
<rect x="28" y="108" width="4" height="4" fill="#09080b"/>
<rect x="32" y="108" width="8" height="4" fill="#383640"/>
<rect x="40" y="108" width="8" height="4" fill="#19181e"/>
<rect x="48" y="108" width="4" height="4" fill="#09080b"/>
<rect x="72" y="108" width="4" height="4" fill="#09080b"/>
<rect x="76" y="108" width="8" height="4" fill="#26242c"/>
<rect x="84" y="108" width="8" height="4" fill="#19181e"/>
<rect x="92" y="108" width="4" height="4" fill="#09080b"/>
<rect x="32" y="112" width="16" height="4" fill="#09080b"/>
<rect x="76" y="112" width="16" height="4" fill="#09080b"/>
</svg>
